# xmcd
#
# Track frame offsets: 
#        150
#        20035
#        31210
#        48826
#        60234
#        74068
#        99453
#        113582
#        130637
#        145012
#        161782
#        180731
#
# Disc length: 2624 seconds
#
# Revision: 0
# Processed by: cddbd v1.5.2PL0 Copyright (c) Steve Scherf et al.
# Submitted via: ExactAudioCopy v0.99pb5
#
DISCID=9d0a3e0c
DTITLE=Jack Wilson - Jack Wilson
DYEAR=2013
DGENRE=Rock
TTITLE0=Valhalla
TTITLE1=I'll Do the Same
TTITLE2=The Cure
TTITLE3=Red Feather
TTITLE4=Clean
TTITLE5=Black Hills Fiction
TTITLE6=Dogwood Days
TTITLE7=Paying For Misery (Thanks To You)
TTITLE8=The Watchers
TTITLE9=Fell Inside
TTITLE10=The Truth
TTITLE11=The Cure (Radio Edit)
EXTD=
EXTT0=
EXTT1=
EXTT2=
EXTT3=
EXTT4=
EXTT5=
EXTT6=
EXTT7=
EXTT8=
EXTT9=
EXTT10=
EXTT11=
PLAYORDER=
